<svg width="20" height="20" viewBox="0 0 20 20" fill="none" xmlns="http://www.w3.org/2000/svg">
<path d="M15.1583 3.00845C14.3436 2.27537 13.3815 1.72506 12.3366 1.39448C11.2916 1.0639 10.1881 0.960691 9.09997 1.09179C7.6914 1.25761 6.35534 1.8068 5.23733 2.67951C4.11933 3.55223 3.26224 4.71501 2.75945 6.04119C2.25665 7.36738 2.12742 8.80611 2.38583 10.2007C2.64424 11.5952 3.28038 12.8921 4.22497 13.9501L7.84997 17.9918C8.11971 18.2956 8.45079 18.5388 8.82139 18.7054C9.19198 18.872 9.59367 18.9581 9.99997 18.9581C10.4063 18.9581 10.808 18.872 11.1786 18.7054C11.5491 18.5388 11.8802 18.2956 12.15 17.9918L15.775 13.9501C17.1419 12.4163 17.8446 10.403 17.729 8.35178C17.6134 6.30056 16.6889 4.37894 15.1583 3.00845V3.00845ZM9.99997 17.7085C9.7688 17.7067 9.54052 17.657 9.32963 17.5623C9.11874 17.4676 8.92985 17.3301 8.77497 17.1585L5.1583 13.1168C4.36351 12.2308 3.82757 11.1434 3.60909 9.97347C3.3906 8.80349 3.49797 7.59596 3.91946 6.48288C4.34095 5.36981 5.06033 4.39403 5.99897 3.66222C6.93761 2.93041 8.05938 2.47074 9.24164 2.33345V2.33345C9.49997 2.33345 9.7583 2.33345 10.0166 2.33345C11.6096 2.33647 13.1447 2.93034 14.325 4.00012C15.6072 5.14831 16.3817 6.75819 16.4785 8.47663C16.5754 10.1951 15.9867 11.8818 14.8416 13.1668L11.225 17.2085C11.0657 17.371 10.8749 17.4992 10.6642 17.5852C10.4535 17.6712 10.2275 17.7132 9.99997 17.7085V17.7085ZM9.99997 5.49179C9.33894 5.49184 8.69284 5.68843 8.14381 6.05658C7.59478 6.42472 7.16761 6.9478 6.91659 7.55932C6.66556 8.17084 6.60203 8.84318 6.73406 9.4909C6.86609 10.1386 7.18773 10.7324 7.65808 11.1969C8.12843 11.6614 8.72626 11.9755 9.37559 12.0994C10.0249 12.2233 10.6964 12.1513 11.3047 11.8926C11.913 11.6339 12.4307 11.2002 12.7919 10.6466C13.1531 10.0929 13.3416 9.44443 13.3333 8.78345C13.3223 7.90664 12.9663 7.06946 12.3424 6.45332C11.7184 5.83718 10.8769 5.49172 9.99997 5.49179ZM9.99997 10.8335C9.59417 10.8351 9.197 10.7163 8.85879 10.492C8.52057 10.2678 8.25652 9.94818 8.10008 9.57374C7.94365 9.1993 7.90186 8.78686 7.98002 8.38865C8.05817 7.99044 8.25275 7.62439 8.53912 7.33685C8.82548 7.04932 9.19074 6.85325 9.58863 6.77347C9.98651 6.6937 10.3991 6.7338 10.7742 6.88871C11.1493 7.04363 11.4699 7.30637 11.6956 7.64367C11.9212 7.98097 12.0416 8.37765 12.0416 8.78345C12.0416 9.3257 11.8268 9.84587 11.4442 10.2301C11.0615 10.6143 10.5422 10.8312 9.99997 10.8335Z" fill="#292D32"/>
</svg>
