<svg width="20" height="20" viewBox="0 0 20 20" fill="none" xmlns="http://www.w3.org/2000/svg">
<path d="M10.3 18.1666C9.97248 18.1625 9.64922 18.0916 9.35002 17.9583C7.40002 17.0666 1.01669 13.6916 1.12502 7.54992C1.12403 6.29213 1.53971 5.06944 2.30711 4.07288C3.07451 3.07632 4.1504 2.36202 5.36669 2.04159C6.18026 1.82431 7.03016 1.77878 7.86229 1.90791C8.69442 2.03703 9.49055 2.33798 10.2 2.79159C10.2124 2.80331 10.2288 2.80985 10.2459 2.80985C10.2629 2.80985 10.2793 2.80331 10.2917 2.79159C11.0632 2.29498 11.9376 1.9806 12.8487 1.87231C13.7598 1.76402 14.6836 1.86466 15.55 2.16659C16.6537 2.55991 17.6104 3.28195 18.2913 4.2355C18.9722 5.18904 19.3446 6.32831 19.3584 7.49992C19.2417 14.3749 13.0167 17.2749 11.1167 18.0083C10.8562 18.1099 10.5796 18.1635 10.3 18.1666ZM6.96669 3.09159C6.53674 3.09085 6.10839 3.14405 5.69169 3.24992C4.73453 3.49804 3.88727 4.05788 3.28367 4.84106C2.68006 5.62423 2.35449 6.58614 2.35835 7.57492C2.26669 12.9499 8.07502 16.0083 9.85835 16.8166C9.98951 16.8749 10.1315 16.9051 10.275 16.9051C10.4186 16.9051 10.5605 16.8749 10.6917 16.8166C12.4167 16.1666 18.0334 13.5583 18.1334 7.46659C18.1136 6.55875 17.8197 5.67812 17.2902 4.94042C16.7607 4.20271 16.0205 3.64245 15.1667 3.33326C14.48 3.09625 13.7486 3.01737 13.0271 3.1025C12.3056 3.18763 11.6127 3.43458 11 3.82492C10.7857 3.96511 10.5352 4.03977 10.2792 4.03977C10.0231 4.03977 9.77263 3.96511 9.55835 3.82492C8.77954 3.33019 7.87254 3.07519 6.95002 3.09159H6.96669Z" fill="#292D32"/>
</svg>
