<svg width="30" height="31" viewBox="0 0 30 31" fill="none" xmlns="http://www.w3.org/2000/svg">
<path d="M24.2298 7.94836H19.9013C19.8635 7.15299 19.5238 6.40168 18.951 5.84676C18.3782 5.29183 17.6152 4.97481 16.8166 4.95996H13.8687C13.0648 4.96223 12.2924 5.27236 11.7114 5.82625C11.1303 6.38013 10.785 7.13541 10.7467 7.93596H5.62212C4.54226 7.93924 3.50775 8.3692 2.74534 9.13159C1.98293 9.89398 1.5548 10.9266 1.55481 12.0032V17.5584C1.55602 18.0589 1.66814 18.553 1.88317 19.0053C2.09819 19.4576 2.4108 19.8569 2.79864 20.1748V23.7584C2.79864 24.6627 3.15901 25.5301 3.80049 26.1696C4.44196 26.8091 5.31198 27.1684 6.21916 27.1684H23.6327C24.5399 27.1684 25.4099 26.8091 26.0514 26.1696C26.6929 25.5301 27.0533 24.6627 27.0533 23.7584V20.1748C27.4411 19.8569 27.7537 19.4576 27.9687 19.0053C28.1838 18.553 28.2959 18.0589 28.2971 17.5584V12.0032C28.2938 10.9288 27.8642 9.89931 27.1022 9.1396C26.3401 8.37988 25.3075 7.95163 24.2298 7.94836V7.94836ZM13.8687 6.83236H16.8166C17.126 6.83082 17.4249 6.9443 17.6549 7.15066C17.8849 7.35702 18.0295 7.64143 18.0604 7.94836H12.6249C12.6558 7.64143 12.8004 7.35702 13.0304 7.15066C13.2604 6.9443 13.5593 6.83082 13.8687 6.83236ZM3.42055 12.0032C3.42055 11.4211 3.6525 10.8628 4.06538 10.4512C4.47825 10.0396 5.03823 9.80836 5.62212 9.80836H24.2795C24.8634 9.80836 25.4234 10.0396 25.8363 10.4512C26.2492 10.8628 26.4811 11.4211 26.4811 12.0032V17.5584C26.4829 17.8435 26.4031 18.1233 26.2511 18.3649C26.0991 18.6064 25.8812 18.7998 25.6229 18.9224L25.4239 19.0092C25.266 19.074 25.097 19.1077 24.9263 19.1084H4.97533C4.80461 19.1077 4.63564 19.074 4.4778 19.0092L4.27879 18.9224C4.0205 18.7998 3.80259 18.6064 3.65059 18.3649C3.49859 18.1233 3.4188 17.8435 3.42055 17.5584V12.0032ZM25.1875 20.956V23.7584C25.1875 24.1694 25.0237 24.5637 24.7321 24.8544C24.4406 25.1451 24.0451 25.3084 23.6327 25.3084H6.21916C5.80681 25.3084 5.41134 25.1451 5.11976 24.8544C4.82818 24.5637 4.66438 24.1694 4.66438 23.7584V20.956H25.1875ZM12.6497 17.5956C12.6497 17.3489 12.748 17.1124 12.923 16.938C13.0979 16.7635 13.3352 16.6656 13.5826 16.6656H17.1026C17.3501 16.6656 17.5873 16.7635 17.7623 16.938C17.9372 17.1124 18.0355 17.3489 18.0355 17.5956C18.0355 17.8422 17.9372 18.0788 17.7623 18.2532C17.5873 18.4276 17.3501 18.5256 17.1026 18.5256H13.5826C13.3362 18.5223 13.1008 18.4233 12.9265 18.2496C12.7523 18.0759 12.653 17.8412 12.6497 17.5956V17.5956Z" fill="#30C4B0"/>
</svg>
