<svg width="20" height="20" viewBox="0 0 20 20" fill="none" xmlns="http://www.w3.org/2000/svg">
<path d="M8.55832 15.8333C8.44807 15.8329 8.339 15.8105 8.23743 15.7676C8.13587 15.7247 8.04383 15.6621 7.96666 15.5833C7.81145 15.4272 7.72433 15.216 7.72433 14.9958C7.72433 14.7757 7.81145 14.5644 7.96666 14.4083L12.3167 9.99998L7.96666 5.69165C7.88896 5.61285 7.82754 5.51953 7.78591 5.417C7.74428 5.31447 7.72325 5.20474 7.72402 5.09409C7.72479 4.98343 7.74736 4.87401 7.79042 4.77207C7.83348 4.67014 7.8962 4.57768 7.97499 4.49998C8.05378 4.42228 8.14711 4.36086 8.24964 4.31923C8.35217 4.2776 8.46189 4.25657 8.57255 4.25734C8.6832 4.25812 8.79262 4.28068 8.89456 4.32374C8.9965 4.3668 9.08896 4.42952 9.16666 4.50831L14.1 9.44998C14.2552 9.60612 14.3423 9.81733 14.3423 10.0375C14.3423 10.2576 14.2552 10.4688 14.1 10.625L9.16666 15.5583C9.08969 15.6436 8.99592 15.7121 8.89123 15.7594C8.78654 15.8067 8.6732 15.8319 8.55832 15.8333Z" fill="black"/>
</svg>
