<svg width="24" height="24" viewBox="0 0 24 24" fill="none" xmlns="http://www.w3.org/2000/svg">
<path d="M12 12.67C10.869 12.67 9.76344 12.3341 8.82359 11.7048C7.88374 11.0756 7.15192 10.1815 6.72094 9.13579C6.28997 8.09009 6.17925 6.93995 6.40283 5.83124C6.62641 4.72253 7.17423 3.7052 7.97679 2.90826C8.77935 2.11131 9.80051 1.57067 10.9108 1.35489C12.021 1.1391 13.1704 1.2579 14.213 1.69622C15.2556 2.13453 16.1446 2.87262 16.7672 3.81687C17.3898 4.76112 17.7179 5.869 17.71 7C17.6995 8.50745 17.0932 9.94955 16.0235 11.0117C14.9538 12.0739 13.5075 12.67 12 12.67V12.67ZM12 2.75C11.1691 2.75004 10.3567 2.99598 9.66527 3.45683C8.97384 3.91769 8.43424 4.57285 8.11445 5.3398C7.79467 6.10675 7.70899 6.95118 7.86822 7.76673C8.02745 8.58228 8.42446 9.33247 9.00924 9.92281C9.59403 10.5132 10.3404 10.9172 11.1544 11.0842C11.9684 11.2511 12.8136 11.1734 13.5836 10.8609C14.3535 10.5484 15.0138 10.015 15.4811 9.32795C15.9485 8.64091 16.2021 7.83091 16.21 7C16.214 6.44415 16.1081 5.89298 15.8984 5.37818C15.6887 4.86337 15.3794 4.39506 14.9882 4.00014C14.597 3.60523 14.1316 3.29149 13.6188 3.07695C13.106 2.86242 12.5559 2.75131 12 2.75V2.75ZM19.7 22.75H4.30001C4.00777 22.7529 3.71843 22.6918 3.45236 22.5708C3.1863 22.4499 2.94997 22.2721 2.76001 22.05C2.59479 21.8582 2.4734 21.6327 2.40431 21.3892C2.33523 21.1456 2.32011 20.89 2.36001 20.64C3.06001 16.49 7.21001 13.36 12 13.36C16.79 13.36 20.94 16.49 21.64 20.64C21.6799 20.89 21.6648 21.1456 21.5957 21.3892C21.5266 21.6327 21.4052 21.8582 21.24 22.05C21.0501 22.2721 20.8137 22.4499 20.5477 22.5708C20.2816 22.6918 19.9923 22.7529 19.7 22.75V22.75ZM12 14.86C7.93001 14.86 4.42001 17.45 3.84001 20.86C3.83582 20.8941 3.83901 20.9287 3.84936 20.9615C3.85972 20.9943 3.87699 21.0245 3.90001 21.05C3.95005 21.1061 4.01185 21.1504 4.081 21.1797C4.15015 21.2091 4.22493 21.2229 4.30001 21.22H19.7C19.7751 21.2229 19.8499 21.2091 19.919 21.1797C19.9882 21.1504 20.05 21.1061 20.1 21.05C20.123 21.0245 20.1403 20.9943 20.1507 20.9615C20.161 20.9287 20.1642 20.8941 20.16 20.86C19.58 17.45 16.07 14.86 12 14.86Z" fill="black"/>
</svg>
